<?xml version="1.0" encoding="utf-8"?>
<!-- Generator: Adobe Illustrator 24.1.1, SVG Export Plug-In . SVG Version: 6.00 Build 0)  -->
<svg version="1.1" id="Layer_1" xmlns="http://www.w3.org/2000/svg" xmlns:xlink="http://www.w3.org/1999/xlink" x="0px" y="0px"
	 viewBox="0 0 100 100" style="enable-background:new 0 0 100 100;" xml:space="preserve">
<style type="text/css">
	.st0{fill:#4D66E6;}
</style>
<g>
	<path class="st0" d="M64.1,49.7c-0.2,1.8-0.3,3.5-0.5,5.3c-0.3,3.8-0.7,7.5-1,11.3c-0.1,1.2-0.5,2.4-1,3.4
		c-0.5,0.9-1.1,1.7-1.9,2.3c-0.4,0.3-0.8,0.6-1.2,1c-1.7,1.3-2.7,3-3,5.1c-0.5,3.1-1.1,6.2-1.7,9.3c-0.1,0.7-0.1,1.4,0.1,2.1
		c0.1,0.3,0.2,0.4,0.4,0.4c1.3,0.3,2.5,0.7,3.8,1.1c0.3,0.1,0.6,0.3,0.9,0.5c0.4,0.3,0.3,0.6-0.1,0.7c-0.3,0.1-0.7,0.2-1.1,0.2
		c-3.5,0.1-6.9-0.5-10.2-1.6c-0.3-0.1-0.7-0.3-1-0.5c-0.2-0.1-0.4-0.3-0.3-0.5c0-0.1,0.3-0.3,0.5-0.3c0.7-0.1,1.5-0.2,2.2-0.2
		c0.8,0,1.6,0.1,2.3,0.2c0.3,0,0.4-0.1,0.5-0.3c0.5-0.8,0.8-1.7,0.9-2.6c0.4-2.9,0.8-5.9,1.3-8.8c0.3-2,0-3.7-1.1-5.4
		c-0.3-0.6-0.7-1.1-1-1.6c-0.8-1.1-1.1-2.3-1.2-3.6c-0.1-1.6,0.3-3.1,0.6-4.7c1.1-4.5,2.2-9,3.3-13.5c0.1-0.3,0.1-0.5,0.2-0.8
		c0-0.3,0.2-0.4,0.4-0.4c0.9,0,1.7,0,2.6,0.2c1.7,0.3,3.4,0.6,5.1,1c0.4,0.1,0.8,0.3,1.2,0.4c0.8-0.4,1.8-0.6,2.8-0.8
		c1.7-0.3,3.4-0.5,5.1-0.7c0.3,0,0.7,0,1,0c0.1,0,0.3,0.2,0.3,0.3c1.3,5.2,2.5,10.4,3.8,15.5c0.4,1.6,0.5,3.2,0.2,4.8
		c-0.2,0.8-0.6,1.6-1,2.3c-0.6,0.9-1.2,1.8-1.6,2.8c-0.6,1.2-0.7,2.5-0.5,3.9c0.5,3.1,0.9,6.3,1.4,9.4c0.1,0.8,0.3,1.5,0.7,2.2
		c0.2,0.3,0.4,0.4,0.7,0.3c1.2-0.1,2.5-0.1,3.7-0.2c0.4,0,0.7,0.1,1.1,0.2c0.1,0,0.3,0.2,0.4,0.3c0,0.1-0.1,0.4-0.2,0.4
		c-0.6,0.3-1.2,0.7-1.9,0.9c-2.8,0.9-5.7,1.4-8.6,1.4c-0.6,0-1.1-0.1-1.7-0.2c-0.2,0-0.4-0.2-0.4-0.3c0-0.1,0.1-0.4,0.3-0.4
		c0.7-0.4,1.5-0.7,2.3-1c0.7-0.2,1.4-0.4,2.1-0.5c0.3-0.1,0.4-0.2,0.4-0.4c0.3-0.9,0.2-1.8,0-2.8c-0.6-3.2-1.2-6.4-1.8-9.5
		c-0.3-1.3-0.9-2.4-1.9-3.4c-0.6-0.6-1.3-1.2-2-1.7c-1.4-1-2.3-2.5-2.7-4.1c-0.3-1.3-0.5-2.7-0.6-4.1c-0.4-4.4-0.8-8.8-1.2-13.3
		C64.3,50.3,64.2,50,64.1,49.7C64.1,49.7,64.1,49.7,64.1,49.7z M51.3,66.6c0,0.3,0,0.7,0.1,1c0.2,1.4,0.7,2.7,1.8,3.7
		c2.4,2,5.9,1.4,7.6-1.4c0.7-1.1,1.1-2.3,1.2-3.6c0.3-3.1,0.6-6.2,0.9-9.4c0.2-2.3,0.4-4.6,0.6-6.9c0-0.3-0.1-0.4-0.3-0.5
		c-2.4-0.6-4.9-1.1-7.4-1.2c-0.3,0-0.4,0.1-0.5,0.4c0,0.2-0.1,0.5-0.2,0.7c-1.1,4.4-2.1,8.7-3.2,13.1C51.7,63.9,51.4,65.2,51.3,66.6
		z M77,66.6c0-0.5,0-1-0.2-1.6c-0.4-1.7-0.7-3.5-1.2-5.2c-0.9-3.7-1.8-7.4-2.7-11.1c-0.1-0.3-0.2-0.4-0.5-0.4
		c-1.1,0.1-2.3,0.2-3.4,0.4c-1.4,0.2-2.7,0.6-4.1,0.9c-0.2,0-0.3,0.2-0.3,0.4c0.3,3.3,0.6,6.6,0.9,9.9c0.2,2.2,0.4,4.4,0.7,6.6
		c0.2,1.5,0.7,2.9,1.6,4.1c2.4,2.9,6.5,2,8-0.2C76.7,69.2,77,68,77,66.6z"/>
	<path class="st0" d="M66.3,38.7c-0.1,0.8-0.3,1.5-0.4,2.2c-0.3,1.9-0.7,3.9-1,5.8c0,0.1,0,0.2,0,0.2c-0.1,0.1-0.2,0.3-0.3,0.3
		c-0.2,0-0.2-0.2-0.2-0.4c0.2-0.9,0.3-1.8,0.5-2.7c0.3-1.7,0.6-3.4,0.9-5.1c0-0.1,0-0.3,0.1-0.4c0.1-0.1,0.2-0.2,0.3-0.2
		C66.2,38.5,66.3,38.7,66.3,38.7z"/>
	<path class="st0" d="M61.8,41.2c0.1,0.1,0.2,0.1,0.2,0.2c0.5,1.5,1,2.9,1.5,4.4c0,0.1-0.1,0.3-0.1,0.4C63.2,46.2,63,46.1,63,46
		c-0.5-1.5-1-3-1.5-4.5C61.4,41.4,61.5,41.2,61.8,41.2z"/>
	<path class="st0" d="M74.2,41.9c-0.1,0.1-0.1,0.2-0.2,0.2c-1.1,0.9-2.3,1.8-3.4,2.7c-0.2,0.1-0.3,0.2-0.4,0c-0.1-0.2,0-0.3,0.1-0.4
		c1.1-0.9,2.3-1.8,3.4-2.7c0.1-0.1,0.2-0.1,0.4-0.1C74.1,41.7,74.1,41.8,74.2,41.9z"/>
	<path class="st0" d="M60,44.6c0.1,0.1,0.2,0.1,0.3,0.2c1,0.9,2,1.8,3.1,2.7c0.1,0.1,0.2,0.3,0.1,0.4c-0.2,0.2-0.3,0.1-0.5,0
		c-1-0.9-2-1.8-3-2.7c-0.1-0.1-0.1-0.2-0.1-0.4C59.8,44.7,59.9,44.7,60,44.6z"/>
	<path class="st0" d="M59.6,44.2c0,0.3-0.2,0.4-0.4,0.3c-0.1,0-0.1-0.1-0.2-0.2c-1-0.9-1.9-1.7-2.9-2.6c-0.1-0.1-0.2-0.1-0.2-0.2
		c0-0.1,0-0.2,0-0.3c0.1-0.1,0.2-0.1,0.3-0.1c0,0,0.1,0.1,0.1,0.1c1,0.9,2,1.8,3,2.7C59.5,44,59.5,44.1,59.6,44.2z"/>
	<path class="st0" d="M69.8,45.3c-0.1,0.1-0.1,0.2-0.2,0.3c-1.1,0.8-2.1,1.6-3.2,2.5c-0.2,0.1-0.3,0.2-0.4,0c0-0.1,0-0.3,0.1-0.4
		c1.1-0.8,2.1-1.7,3.2-2.5c0.1-0.1,0.2-0.1,0.3,0C69.7,45.1,69.7,45.2,69.8,45.3z"/>
	<path class="st0" d="M68.6,42.6c-0.1,0.1-0.1,0.2-0.1,0.3c-0.4,0.6-0.7,1.3-1.1,1.9C67.3,45,67.2,45.2,67,45
		c-0.2-0.1-0.2-0.3-0.1-0.5c0.4-0.7,0.7-1.3,1.1-2c0.1-0.1,0.2-0.2,0.4-0.2C68.5,42.4,68.5,42.6,68.6,42.6z"/>
	<path class="st0" d="M56.4,45.5c0.1,0,0.2,0.1,0.3,0.1c0.7,0.2,1.3,0.5,2,0.7c0.2,0.1,0.4,0.2,0.3,0.4c-0.1,0.2-0.3,0.2-0.5,0.1
		c-0.7-0.3-1.4-0.5-2-0.8c-0.1,0-0.2-0.2-0.2-0.3C56.2,45.7,56.3,45.6,56.4,45.5z"/>
	<path class="st0" d="M69.5,47.2c-0.1-0.1-0.2-0.2-0.2-0.2c0-0.1,0.1-0.3,0.1-0.3c0.7-0.2,1.4-0.5,2.1-0.7c0.1,0,0.3,0.1,0.3,0.2
		c0,0.1,0,0.3-0.1,0.3C71,46.7,70.3,47,69.5,47.2z"/>
	<path class="st0" d="M58.4,39.2c-0.4,0-0.7-0.3-0.7-0.7c0-0.4,0.3-0.7,0.7-0.6c0.4,0,0.6,0.3,0.6,0.7
		C59.1,38.9,58.8,39.2,58.4,39.2z M57.9,38.3c0,0.1,0,0.1,0,0.2c0.1,0.1,0.3,0.2,0.4,0.2c0.1,0,0.3-0.2,0.3-0.3
		c0-0.1-0.2-0.3-0.3-0.3C58.2,38.1,58.1,38.3,57.9,38.3z"/>
	<path class="st0" d="M64.3,40.4c0,0.4-0.3,0.7-0.7,0.7c-0.4,0-0.7-0.3-0.7-0.7c0-0.4,0.3-0.6,0.7-0.7C64,39.7,64.3,40,64.3,40.4z
		 M63.5,40.6c0.1,0,0.1,0,0.2,0c0.1-0.1,0.3-0.2,0.2-0.4c0-0.1-0.2-0.3-0.3-0.3c-0.1,0-0.3,0.2-0.3,0.3
		C63.3,40.3,63.4,40.5,63.5,40.6z"/>
	<path class="st0" d="M75,45.8c-0.4,0-0.7-0.3-0.7-0.7c0-0.4,0.3-0.7,0.7-0.6c0.4,0,0.6,0.3,0.6,0.7C75.7,45.5,75.4,45.8,75,45.8z
		 M75.2,45.1c0,0,0-0.1,0-0.1c-0.1-0.1-0.3-0.2-0.4-0.2c-0.1,0-0.3,0.2-0.3,0.3c0,0.1,0.2,0.3,0.3,0.3C75,45.3,75.1,45.2,75.2,45.1z
		"/>
	<path class="st0" d="M70.4,38.5c0,0.4-0.3,0.7-0.7,0.7c-0.4,0-0.7-0.3-0.7-0.7c0-0.4,0.3-0.6,0.6-0.7
		C70.1,37.8,70.4,38.1,70.4,38.5z M69.7,38c0,0-0.1,0-0.1,0c-0.1,0.1-0.2,0.3-0.2,0.4c0,0.1,0.2,0.3,0.3,0.3c0.1,0,0.3-0.2,0.3-0.3
		C69.9,38.3,69.7,38.1,69.7,38z"/>
	<path class="st0" d="M53.6,44.1c0.4,0,0.7,0.3,0.7,0.7c0,0.4-0.3,0.7-0.7,0.6c-0.4,0-0.6-0.3-0.6-0.7
		C52.9,44.4,53.2,44.1,53.6,44.1z M53.5,44.2c0,0-0.1,0-0.1,0c-0.1,0.1-0.2,0.2-0.2,0.4c0,0.1,0.2,0.3,0.3,0.3
		c0.1,0,0.3-0.2,0.3-0.3C53.8,44.5,53.6,44.4,53.5,44.2z"/>
	<path class="st0" d="M62.6,58c0-0.6,0-1.3,0-1.9c0-0.3,0-0.6,0-0.9c0-0.3-0.1-0.5-0.4-0.6c-0.8-0.2-1.6-0.4-2.4-0.6
		c-1.2-0.2-2.3-0.4-3.6-0.6c-0.2,1.1-0.5,2.1-0.7,3.1c0.3,0.1,0.5,0.1,0.8,0.2c0.1,0.1,0.2,0.2,0.3,0.4c0.1,0.3,0,0.7-0.2,0.9
		c-0.3,0.3-0.7,0.3-1.2,0c-0.1,0.4-0.2,0.9-0.3,1.3c0,0.1-0.1,0.3-0.2,0.4c-0.1,0.1-0.4,0.1-0.5,0.1c-0.2-0.1-0.3-0.3-0.2-0.6
		c0.2-0.8,0.3-1.6,0.5-2.4c0.2-1,0.5-2.1,0.7-3.1c0-0.1,0-0.1,0-0.2c-0.3-0.1-0.5,0-0.6,0.3c-0.3,0.8-0.5,1.6-0.8,2.4
		c0,0.1-0.1,0.2-0.2,0.3c0.2-0.9,0.4-1.8,0.7-2.7c0.2-0.8,0.2-0.8,1.1-0.8c2.3,0.2,4.5,0.5,6.7,1.1c0.8,0.2,0.8,0.2,0.7,1
		C62.8,56.2,62.7,57.1,62.6,58C62.6,58,62.6,58,62.6,58z M56.2,57.3c0-0.1,0-0.1,0-0.2c-0.2-0.1-0.3-0.3-0.5-0.3
		c-0.3,0-0.4,0.2-0.4,0.4c0,0.3,0.2,0.4,0.4,0.3C55.9,57.5,56,57.4,56.2,57.3z"/>
	<path class="st0" d="M53.2,69.7c-0.5-0.5-0.6-1.1-0.7-1.7c-0.2-1.3,0-2.6,0.3-3.9c0.2-0.9,0.4-1.9,0.6-2.8c0-0.1,0-0.1,0.1-0.2
		c0.1-0.3,0.3-0.4,0.6-0.4c0.3,0.1,0.4,0.3,0.4,0.6c-0.2,0.8-0.3,1.6-0.5,2.3c-0.4,1.9-0.7,3.9-0.7,5.8
		C53.3,69.5,53.2,69.6,53.2,69.7z"/>
	<path class="st0" d="M58.3,55c0,0.5-0.4,0.8-0.8,0.8c-0.5,0-0.8-0.4-0.8-0.8c0-0.4,0.4-0.8,0.8-0.8C57.9,54.1,58.3,54.5,58.3,55z
		 M57.5,55.2c0.1-0.1,0.2-0.2,0.3-0.4c0-0.2-0.1-0.4-0.4-0.4c-0.2,0-0.4,0.1-0.4,0.4C57,55,57.2,55.1,57.5,55.2z"/>
	<path class="st0" d="M58.9,59.8c-0.4,0-0.8-0.4-0.8-0.8c0-0.5,0.4-0.8,0.8-0.8c0.5,0,0.8,0.4,0.8,0.8
		C59.7,59.4,59.3,59.8,58.9,59.8z M58.9,59.2c0.1-0.1,0.2-0.2,0.3-0.4c0-0.2-0.1-0.4-0.4-0.4c-0.2,0-0.4,0.2-0.4,0.4
		C58.4,59,58.5,59.1,58.9,59.2z"/>
	<path class="st0" d="M58.1,62.2c0.4,0,0.7,0.3,0.7,0.7c0,0.4-0.3,0.7-0.7,0.7c-0.4,0-0.6-0.3-0.6-0.7
		C57.4,62.5,57.7,62.2,58.1,62.2z M58,62.4c0,0-0.1,0-0.1,0c-0.1,0.1-0.2,0.3-0.2,0.4c0,0.1,0.2,0.2,0.3,0.3
		c0.1-0.1,0.3-0.2,0.3-0.3C58.3,62.6,58.1,62.5,58,62.4z"/>
	<path class="st0" d="M56.4,63.3c0,0.3-0.3,0.6-0.6,0.6c-0.3,0-0.6-0.3-0.6-0.6c0-0.3,0.2-0.6,0.6-0.6C56.1,62.7,56.3,63,56.4,63.3z
		 M55.7,63.6c0.1-0.2,0.3-0.3,0.3-0.4c0-0.1-0.2-0.2-0.3-0.3c-0.1,0.1-0.2,0.2-0.3,0.3C55.4,63.3,55.5,63.4,55.7,63.6z"/>
	<path class="st0" d="M57.3,60.4c0,0.3-0.3,0.6-0.6,0.6c-0.3,0-0.6-0.3-0.6-0.6c0-0.3,0.3-0.6,0.6-0.6
		C57.1,59.8,57.3,60.1,57.3,60.4z M57.1,60.3c-0.2-0.1-0.3-0.3-0.4-0.3c-0.1,0-0.3,0.2-0.3,0.3c0,0.1,0.2,0.3,0.3,0.3
		C56.8,60.6,56.9,60.4,57.1,60.3z"/>
	<path class="st0" d="M59.6,56.8c-0.3,0-0.6-0.3-0.6-0.6c0-0.3,0.2-0.6,0.6-0.6c0.3,0,0.6,0.2,0.6,0.6C60.2,56.5,60,56.8,59.6,56.8z
		 M60,56.1c-0.2-0.1-0.3-0.3-0.4-0.3c-0.1,0-0.2,0.2-0.3,0.3c0.1,0.1,0.2,0.2,0.3,0.3C59.7,56.4,59.8,56.2,60,56.1z"/>
	<path class="st0" d="M57,66.4c-0.3,0-0.4-0.2-0.4-0.5c0-0.3,0.2-0.4,0.4-0.4c0.2,0,0.5,0.2,0.4,0.5C57.5,66.2,57.3,66.4,57,66.4z
		 M57,66.1c0.1-0.1,0.2-0.2,0.2-0.3c0-0.1-0.1-0.2-0.2-0.2c-0.1,0-0.2,0.1-0.2,0.2C56.8,65.9,56.9,66,57,66.1z"/>
	<path class="st0" d="M56.3,68.1c-0.1,0.1-0.2,0.2-0.4,0.3c-0.2,0-0.4-0.1-0.3-0.3c0-0.1,0.2-0.3,0.3-0.3c0.1,0,0.3,0.1,0.4,0.2
		C56.3,68,56.3,68,56.3,68.1z"/>
	<path class="st0" d="M56.8,70.5c-0.1,0.1-0.2,0.2-0.4,0.3c-0.2,0-0.4-0.1-0.3-0.3c0-0.1,0.2-0.3,0.3-0.3c0.1,0,0.3,0.1,0.4,0.2
		C56.8,70.4,56.8,70.5,56.8,70.5z"/>
	<path class="st0" d="M56.6,62.4c-0.1-0.1-0.2-0.3-0.2-0.4c0-0.1,0.2-0.3,0.3-0.3c0.2,0,0.3,0.1,0.3,0.3c0,0.1-0.2,0.2-0.3,0.4
		C56.7,62.4,56.7,62.4,56.6,62.4z"/>
	<path class="st0" d="M74.6,56.5c-0.3-0.8-0.5-1.7-0.8-2.5c-0.2-0.5-0.2-0.5-0.8-0.5c-1.9,0.1-3.8,0.4-5.7,0.8
		c-0.1,0-0.2,0.2-0.2,0.3c0.1,1,0.2,1.9,0.3,2.9c0.5-0.2,0.9-0.3,1.3,0.2c0.2,0.3,0.2,0.6,0,0.9c-0.2,0.3-0.5,0.4-1.1,0.3
		c0,0.4,0.1,0.7,0.1,1.1c0,0.1,0,0.2,0,0.4c0,0.3-0.2,0.5-0.5,0.5c-0.3,0-0.5-0.2-0.5-0.5c-0.1-0.6-0.1-1.1-0.2-1.7
		c-0.1-1.3-0.3-2.7-0.4-4c0,0,0-0.1,0-0.1c-0.3,0-0.4,0.2-0.4,0.5c0,1,0,2,0,3c-0.1-1.2-0.2-2.3-0.2-3.5c0-0.1,0.2-0.3,0.3-0.3
		c0.9-0.2,1.7-0.5,2.6-0.7c1.5-0.2,2.9-0.4,4.4-0.6c1-0.1,1-0.1,1.2,0.8C74.3,54.8,74.5,55.6,74.6,56.5
		C74.6,56.5,74.6,56.5,74.6,56.5z M68,58.4c0.1-0.1,0.2-0.2,0.3-0.4c0-0.2-0.1-0.4-0.4-0.4c-0.2,0-0.4,0.1-0.4,0.3
		C67.5,58.2,67.6,58.3,68,58.4z"/>
	<path class="st0" d="M69.5,70.8c-0.3-0.3-0.6-0.6-0.8-0.9c-0.7-1-1-2.1-1.2-3.2c-0.2-1.4-0.4-2.8-0.6-4.2c0-0.2,0-0.5,0.2-0.6
		c0.3-0.2,0.7,0,0.7,0.4c0.1,0.9,0.2,1.8,0.3,2.7c0.2,1.8,0.5,3.5,1.1,5.2c0,0.1,0.1,0.2,0.1,0.3C69.5,70.6,69.5,70.6,69.5,70.8z"/>
	<path class="st0" d="M68.8,54.5c0.4,0,0.8,0.4,0.8,0.8c0,0.5-0.4,0.8-0.8,0.8c-0.5,0-0.9-0.4-0.8-0.8C68,54.8,68.4,54.5,68.8,54.5z
		 M69.1,55.2c0-0.4-0.2-0.5-0.4-0.5c-0.2,0-0.4,0.2-0.4,0.4c0,0.3,0.2,0.4,0.4,0.4C68.9,55.5,69,55.3,69.1,55.2z"/>
	<path class="st0" d="M72.2,58.6c0,0.5-0.4,0.8-0.8,0.8c-0.5,0-0.8-0.4-0.8-0.8c0-0.5,0.4-0.8,0.8-0.8
		C71.9,57.8,72.2,58.2,72.2,58.6z M71.4,58.1c-0.4,0-0.5,0.2-0.5,0.4c0,0.2,0.2,0.4,0.4,0.4c0.2,0,0.4-0.2,0.4-0.4
		C71.6,58.3,71.4,58.2,71.4,58.1z"/>
	<path class="st0" d="M71.9,63.3c-0.4,0-0.7-0.3-0.7-0.7c0-0.4,0.3-0.7,0.7-0.7c0.3,0,0.7,0.3,0.7,0.6C72.6,63,72.3,63.3,71.9,63.3z
		 M71.9,62.1c-0.1,0-0.1,0-0.2,0c-0.1,0.1-0.2,0.3-0.2,0.4c0,0.1,0.2,0.3,0.3,0.3c0.1,0,0.3-0.2,0.3-0.3
		C72.1,62.4,72,62.3,71.9,62.1z"/>
	<path class="st0" d="M71.8,55.8c0,0.3-0.3,0.6-0.6,0.6c-0.3,0-0.6-0.3-0.6-0.6c0-0.3,0.3-0.6,0.6-0.6
		C71.6,55.2,71.8,55.5,71.8,55.8z M71.2,56.1c0.1-0.2,0.3-0.3,0.3-0.4c0-0.1-0.2-0.2-0.3-0.3c-0.1,0.1-0.2,0.2-0.3,0.3
		C70.9,55.8,71,55.9,71.2,56.1z"/>
	<path class="st0" d="M69.9,60.1c0.3,0,0.6,0.3,0.6,0.6c0,0.3-0.3,0.6-0.6,0.6c-0.3,0-0.6-0.3-0.6-0.6
		C69.3,60.4,69.5,60.1,69.9,60.1z M69.8,60.2c-0.1,0.2-0.3,0.3-0.3,0.4c0,0.1,0.2,0.2,0.3,0.3c0.1-0.1,0.2-0.2,0.3-0.3
		C70,60.5,69.9,60.4,69.8,60.2z"/>
	<path class="st0" d="M70.5,63.7c0,0.3-0.3,0.6-0.6,0.6c-0.3,0-0.6-0.3-0.6-0.6c0-0.3,0.3-0.6,0.6-0.6
		C70.2,63.1,70.5,63.4,70.5,63.7z M69.8,63.2c-0.1,0.2-0.3,0.3-0.3,0.4c0,0.1,0.2,0.3,0.3,0.3c0.1,0,0.3-0.2,0.3-0.3
		C70.1,63.5,69.9,63.4,69.8,63.2z"/>
	<path class="st0" d="M71.9,66.3c-0.2,0-0.4-0.2-0.4-0.5c0-0.2,0.2-0.4,0.5-0.4c0.3,0,0.4,0.2,0.4,0.5
		C72.4,66.1,72.1,66.3,71.9,66.3z M71.8,66c0.1-0.1,0.2-0.2,0.2-0.3c0-0.1-0.1-0.1-0.2-0.2c-0.1,0.1-0.2,0.1-0.2,0.2
		C71.6,65.8,71.7,65.9,71.8,66z"/>
	<path class="st0" d="M71.4,68.5c-0.1-0.1-0.2-0.3-0.2-0.4c0-0.1,0.2-0.3,0.3-0.3c0.1,0,0.3,0.2,0.3,0.3c0,0.1-0.2,0.2-0.3,0.4
		C71.5,68.5,71.5,68.5,71.4,68.5z"/>
	<path class="st0" d="M73.2,70.4c-0.1,0.1-0.3,0.2-0.4,0.2c-0.1,0-0.3-0.2-0.3-0.3c0-0.1,0.2-0.3,0.3-0.3c0.1,0,0.3,0.1,0.4,0.2
		C73.2,70.3,73.2,70.3,73.2,70.4z"/>
	<path class="st0" d="M70.7,62.3c-0.1,0.1-0.2,0.2-0.4,0.3c-0.2,0-0.4-0.1-0.4-0.3c0-0.1,0.2-0.3,0.3-0.3c0.1,0,0.3,0.1,0.4,0.2
		C70.7,62.2,70.7,62.3,70.7,62.3z"/>
	<path class="st0" d="M57,66.1c-0.1-0.1-0.2-0.2-0.2-0.3c0-0.1,0.1-0.2,0.2-0.2c0.1,0,0.2,0.1,0.2,0.2C57.2,65.9,57.1,66,57,66.1z"
		/>
	<path class="st0" d="M71.8,66c-0.1-0.1-0.2-0.2-0.2-0.3c0-0.1,0.1-0.1,0.2-0.2c0.1,0.1,0.2,0.1,0.2,0.2C72,65.8,71.9,65.9,71.8,66z
		"/>
</g>
<g>
	<path class="st0" d="M33.9,38.2c0.7,0.5,0.6,1,0.4,1.6c-2.1,4.3-4.1,8.7-6.1,13.2c0.3-0.2,0.8-0.4,1-0.7c0.3-0.4,0.6-0.9,0.8-1.4
		c1.8-3.7,3.5-7.4,5.3-11.1c0.1-0.2,0.3-0.6,0.2-0.7c-0.7-0.8-0.2-1.4,0.2-2.1c0.6-1.2,1.1-2.4,1.7-3.6c-0.7-0.4-1,0-1.2,0.5
		c-0.6,1.3-1.2,2.5-1.9,3.9c-0.7-0.4-0.7-0.9-0.4-1.4c0.6-1.2,1.2-2.4,1.7-3.6c0.3-0.7,0.9-1,1.5-0.8c1.6,0.5,3.1,1.2,4.6,1.8
		c0.6,0.3,0.8,0.8,0.6,1.4c-0.4,1.4-0.8,2.8-1.2,4.2c0,0.2-0.2,0.4-0.3,0.4c-1.2,0.2-1.2,1.2-1.4,2c-1.1,3.7-2.3,7.4-3.4,11.2
		c-0.8,2.6-0.4,5.2-0.1,7.8c0.2,1.8,0.4,3.7,0.6,5.5c0.3,2.9-0.5,5.6-1.5,8.2c-2.6,6.5-5.2,12.9-7.9,19.4c-0.3,0.8-0.9,1-1.6,0.9
		c-1.7-0.3-3.4-0.5-5.1-1c-3.8-1.1-7.4-2.5-10.8-4.6c-0.1-0.1-0.2-0.1-0.3-0.2c-2-1.3-2.1-1.6-1.2-3.9c2.1-5.7,4.2-11.3,6.2-17
		c1.6-4.7,4.3-8.5,8.3-11.5c0.8-0.6,1.6-1.4,2.4-2.1c2-1.7,3.4-3.9,4.5-6.3C30.7,44.9,32.3,41.6,33.9,38.2z M22.3,58.6
		c-3.1,2.3-4.4,5.7-5.9,8.9c-0.3-0.1-0.6-0.2-0.9-0.4c-0.2,0.4-0.3,0.7-0.4,1.1c-1.3,3.9-3.5,7.4-3.9,11.6c-0.1,1.5-1.1,3-1.8,4.5
		c-0.6,1.3-0.1,2.3,1.2,2.5c-0.2-0.5-0.6-1.1-0.5-1.6c0.6-1.8,1.4-3.6,2.1-5.4c0.3,0.2,0.4,0.2,0.6,0.3c4.8,3,9.9,5,15.5,6
		c0.7,0.1,1,0,1.2-0.6c1.4-3.4,2.7-6.8,4.1-10.3c0.1-0.3,0.2-0.6,0.2-0.9C28,72.8,22.5,70.8,17.2,68c0.8-2.9,3.2-6.9,5.3-8.7
		c0.2-0.2,0.6-0.5,0.7-0.4c0.9,0.6,2.2,0.7,2.9,1.8c0.9,1.5,2.6,2.1,4.3,1.7c0.4-0.1,0.9-0.1,1.4,0.1c1.1,0.3,2.2,0.7,3.4,1
		c0.1-0.2,0.1-0.3,0.1-0.4c-0.1-1.5-0.3-3.1-0.4-4.6c0-0.6-0.3-0.9-0.8-1c-0.4-0.1-0.8-0.5-1-0.8c-1-1.6-2.6-2.5-4.4-2
		c-0.8,0.2-1.4,0.2-2.1-0.2c-0.2-0.1-0.7-0.1-0.9,0.1c-1.3,1.1-2.5,2.3-3.8,3.5C22,58.1,22.1,58.3,22.3,58.6z M17.5,89.7
		c0,0,0-0.1,0.1-0.1c-1.5-0.6-3.1-1.2-4.6-1.9c0,0,0,0.1-0.1,0.1C14.4,88.5,15.9,89.1,17.5,89.7z"/>
	<path class="st0" d="M49.9,15.3c-0.4,0.9-0.7,1.8-1.1,2.6C48.5,18.8,48,19,47,18.6c-0.6-0.2-1.1-0.5-1.7-0.7
		c-1.1-0.5-1.3-1.1-0.8-2.1c0.3-0.6,0.6-1.1,0.8-1.7c0.1-0.2,0.2-0.6,0-0.7c-1-1-0.2-1.8,0.4-2.4c1-1,2.3-1,3.6-0.5
		c1.3,0.5,2.1,1.4,2.3,2.9C51.8,14.6,51.1,15.4,49.9,15.3z"/>
	<path class="st0" d="M39.4,31.1c1.4-3.1,2.7-6.1,4.1-9.2c0.1-0.3,0.5-0.4,0.8-0.6c0,0.4,0.2,0.8,0,1.1c-1.6,2.9-3.2,5.8-4.8,8.7
		C39.5,31.2,39.5,31.2,39.4,31.1z"/>
	<path class="st0" d="M36.9,22c2,0.9,2.6,5.9,1.2,8.4C39,27.5,38.1,24.8,36.9,22z"/>
	<path class="st0" d="M48.4,26.8c-2.9,1-5.5,2.1-7.1,5C42.1,29,46.4,25.9,48.4,26.8z"/>
	<path class="st0" d="M35.8,17.7c-0.3-0.2-0.6-0.4-0.9-0.6c0.1-0.2,0.2-0.6,0.3-0.9c0.3,0,0.7,0,1.1,0.1c-0.1,0-0.2,0.1-0.4,0.1
		c0.2,0.3,0.3,0.6,0.5,0.9C36.4,17.3,36.1,17.5,35.8,17.7z"/>
	<path class="st0" d="M50.8,27.7c0.4,0.4,0.8,0.7,1.2,1c-0.4,0.2-0.7,0.3-1,0.5c-0.2-0.2-0.5-0.4-0.7-0.6
		C50.5,28.4,50.6,28.1,50.8,27.7z"/>
	<path class="st0" d="M51.8,24.2c0.1-0.2,0.2-0.4,0.4-0.7c0.2,0,0.5,0.1,0.9,0.1c0.1,0.2,0.2,0.5,0.3,0.7c-0.2,0.1-0.5,0.1-0.8,0.2
		c0,0.1,0.1,0.2,0.1,0.3C52.4,24.6,52.1,24.4,51.8,24.2z"/>
	<path class="st0" d="M34.8,22.1c-0.2-0.2-0.5-0.3-0.8-0.5c0.1-0.2,0.2-0.5,0.3-0.9c0.4,0.3,0.9,0.5,1.4,0.8
		C35.2,21.8,35,22,34.8,22.1z"/>
	<path class="st0" d="M40.6,20c0.1,1.1,0.2,2.1,0.4,3.2c-0.1,0-0.1,0-0.2,0c-0.2-1.1-0.3-2.1-0.5-3.2C40.4,20,40.5,20,40.6,20z"/>
	<path class="st0" d="M44.9,25c0.8-0.6,1.7-1.2,2.5-1.7c0.1,0.1,0.1,0.2,0.2,0.3c-0.8,0.5-1.7,1.1-2.5,1.6
		C45,25.1,44.9,25.1,44.9,25z"/>
</g>
</svg>
