<?xml version="1.0" encoding="utf-8"?>
<!-- Generator: Adobe Illustrator 24.1.1, SVG Export Plug-In . SVG Version: 6.00 Build 0)  -->
<svg version="1.1" id="Layer_1" xmlns="http://www.w3.org/2000/svg" xmlns:xlink="http://www.w3.org/1999/xlink" x="0px" y="0px"
	 viewBox="0 0 100 100" style="enable-background:new 0 0 100 100;" xml:space="preserve">
<style type="text/css">
	.st0{fill:#38A4F1;}
</style>
<g>
	<path class="st0" d="M2,82.6L2,82.6c0.9-1.3,2.3-1.7,3.5-2.3c0.2-0.1,0.5-0.1,0.7,0c1.2,0.5,2.2,0.2,3.2-0.5c1.6-1,3-2.2,4.2-3.7
		c1-1.3,2-2.5,3-3.8c0.7-1,1.7-1.4,2.9-1.5c0.4,0,0.6-0.2,0.7-0.6c0.2-0.7,0.5-1.4,0.7-2.1c0.5-1.6,1.8-2.5,2.8-3.9
		c0.2,0.6,0.3,1,0.4,1.5c0.2,0.8,0.7,1.2,1.3,1.7c0.4,0.3,0.8,0.5,1.2,0.6c0.1,0,0.3,0,0.4-0.1v-0.1c-0.2-0.1-0.3-0.1-0.5-0.3
		c-0.2-0.2-0.5-0.5-0.6-0.7c-0.1-0.1,0-0.4,0.1-0.6c0.1-0.1,0.4,0,0.5,0c2.2,0.6,4.5,0.3,5.7-1.6c0.2-0.4,0.3-0.9,0.5-1.5
		c-0.4,0.2-0.6,0.3-0.8,0.3c-0.3,0.1-0.5,0.2-0.8,0.2c-0.9-0.1-1.5,0.3-2.1,0.9c-0.6,0.6-1.8,0.6-2.4,0c-0.5-0.5-1-0.7-1.7-0.7
		c-0.6,0-1.2-0.2-1.8-0.3c-0.3-0.1-0.6-0.3-0.6-0.7c-0.1-0.9-0.1-1.7-0.2-2.6c0-0.1,0-0.3,0.1-0.4c0.6-0.5,0.4-1,0.1-1.6
		c-1,0.4-2,0.8-3.1,0.2c-0.6-0.4-1.1-0.9-1.4-1.7c0.3,0,0.6,0.1,0.8,0.1c0.6,0,1.2,0.1,1.8,0c0.9-0.1,1.3-0.7,1.3-1.7
		c-0.4,0.1-0.7,0.1-1.1,0.2c-1.1,0.1-2.2-0.5-2.7-1.5c-0.4-0.8-0.2-1.5,0.5-1.9c0.6-0.4,1.3-0.6,1.9-0.9l0.1,0.1
		c-0.1,0.1-0.1,0.1-0.2,0.2c-0.6,0.5-0.5,0.9,0.2,1.1c1.3,0.4,2.6,0.3,3.7-0.7c0.5-0.4,1-0.8,1.5-1.2c1.2-0.8,2-0.7,3.2,0.1
		c0.1,0.1,0.3,0.2,0.4,0.3c0,0,0.1,0,0.1-0.1c0.7-1.2,1.3-1.5,2.6-1.1c0.5,0.2,1,0.4,1.4,0.7c-0.3,0.1-0.6,0.1-1,0.2
		c-0.3,0.1-0.6,0.3-0.6,0.7c0.1,0.3,0.2,0.8,0.5,0.9c0.6,0.3,1.4,0.5,2.1,0.8c0.2-1.1,0.5-2.1,0.7-3.2c0.5,0.1,1,0.2,1.5,0.3
		c-0.2,1-0.5,2-0.7,3c-1,4-1.9,8.1-2.9,12.1c-0.2,1-1.7,2.2-2.8,2.3c-0.6,0-1.2,0.1-1.9,0.1c0.2,0.1,0.3,0.2,0.4,0.3
		c1.5,0.9,3.8,0.2,4.6-1.3c0.1-0.2,0.1-0.4,0.2-0.6c0.6-2.3,1.1-4.7,1.7-7c0-0.1,0.1-0.3,0.1-0.4c0.4,0.1,0.7,0.2,1.1,0.2
		c0.9,0.1,1.8,0.1,2.7-0.3c0.7-0.3,1.4-0.3,2.2,0c1,0.3,1.9,0.2,2.6-0.6c0.3-0.3,0.7-0.5,1-0.9c0.4-0.4,0.9-0.6,1.4-0.4
		c0.3,0.1,0.5,0,0.7-0.3c0.6-0.8,1.2-1.7,2-2.3c2.4-2.1,5.1-2.7,8.1-1.8c0.5,0.2,0.9,0.5,1.4,0.7c0.2,0.1,0.4,0.2,0.6,0.2
		c1.1,0.1,2.2,0.2,3.3,0.3c0.6,0.1,1.1,0.2,1.5,0.7c0.1,0.1,0.3,0.1,0.5,0.1c1.2,0,2.3-0.1,3.5-0.1c0.5,0,0.7-0.3,0.7-0.7
		c0.1-0.8,0.3-1.7,0.4-2.5c0-0.1,0-0.3-0.1-0.4c-1.3-2.7-2.5-5.3-3.8-8c-0.1-0.3-0.3-0.3-0.6-0.4c-0.8-0.1-1.6-0.2-2.3-0.5
		c-1.1-0.4-1.5-1.2-1.5-2.2s0.7-1.6,1.6-1.9c0.1,0,0.2-0.1,0.3-0.1c-0.1-1-0.3-2.1-0.4-3.1c-0.4-3.2-0.9-6.5-1.3-9.7
		c0-0.2,0.1-0.4,0.2-0.5c2.7-1.5,5.5-3,8.2-4.5c0,0,0.1,0,0.2-0.1c-0.1,0.6-0.2,1.2-0.3,1.8c-0.6,4-1.2,7.9-1.8,11.9
		c0,0.3,0,0.6,0.1,0.8c0.1,0.3,0.2,0.5,0.3,0.8c0.4,1,0.5,2,0.6,3c0.1,1.1,0.4,2.2,1.1,3.1c1.6,2,3.3,4.1,4.9,6.1
		c0.1,0.1,0.2,0.3,0.4,0.4c0.6-0.5,1.2-1,1.7-1.6c0.1-0.1,0.1-0.2,0.1-0.3c0.4-2.1,1-2.7,3-3.1c1-0.2,1.9-0.5,2.9-0.6
		c1.4-0.1,2.9,0.1,4.3,0.1c0.3,0,0.6,0,0.8-0.1c1.5-0.4,2.9-1.1,4.2-1.9c0.6-0.4,1.2-0.7,1.9-0.9c1.3-0.5,2.6-0.9,3.9-1.4
		c0.1,0,0.3-0.1,0.5-0.1c0.1,4.6,0.1,9.2,0.2,13.8c-0.6-0.2-1.2-0.3-1.7-0.5c-3.2-0.9-6.4-1.8-9.6-2.6C86.5,48,85.9,48,85.3,48
		c-1.6-0.1-3.3-0.1-4.9-0.2c-0.5,0-0.9-0.1-1.4-0.1c-0.2,0-0.4,0.2-0.5,0.3c-0.4,0.8-0.7,1.7-1,2.5c-0.1,0.2,0,0.4,0,0.5
		c0.7,1.3,1.4,2.6,2.1,3.9c0.1,0.2,0.2,0.3,0.3,0.4c0.8,0.8,1.1,1.7,0.7,2.8c-0.7,2.2-2,4-3.9,5.2c-1.2,0.8-2.4,1.5-3.7,2
		c-2.5,0.9-5,1.7-7.5,2.5C64.7,68,63.8,68,63,68.1c-1.9,0.1-3.8,0.2-5.6,0.3c-0.1,0-0.3,0-0.4,0c-0.2-0.7-0.4-1.4-0.5-2.2h-0.1
		c-0.1,0.5-0.2,1.1-0.3,1.6c0,0.2-0.2,0.4-0.3,0.4c-1.1,0.5-2.1,0.9-3.3,1.3c0.1,0.2,0.2,0.3,0.3,0.4c1.6,1.9,3.1,3.8,4.7,5.7
		c0.2,0.3,0.5,0.6,0.6,1c0.5,1.2,0.1,2.2-1.1,2.8c-1.8,0.8-3.6,1.5-5.4,2.3c-3.3,1.4-6.5,2.8-9.8,4.2c-0.9,0.4-1.8,0.7-2.7,1.1
		c-1.1,0.5-2.1,0.8-3,1.6c-0.2,0.2-0.6,0.3-0.9,0.5c-0.2,0-0.4,0-0.6,0c-0.2-0.3-0.5-0.5-0.8-0.9c-0.6-0.1-1-0.5-0.8-1.2
		c-0.8-0.2-0.8-0.2-0.8-0.9c-0.2-0.1-0.5-0.2-0.6-0.3c-0.2-0.6,0.1-1,0.5-1.5c-0.2-0.2-0.3-0.5-0.4-0.7c0.6-0.4,1.1-0.8,1.6-1.3
		c1.1-1.1,2.3-1.5,3.8-1.3c1,0.1,2-0.1,2.9-0.4c2.8-1.1,5.1-2.9,7.3-5c-0.4-1-1-2-2.1-2.4c-0.6-0.2-1.1-0.4-1.7-0.6
		c-0.2-0.1-0.5-0.1-0.7,0c-1.2,0.2-2.5,0.4-3.7,0.5c-2.2,0.2-4.2-0.4-5.8-2c-0.3-0.3-0.5-0.4-0.9-0.3c-2.4,0.3-4.3-0.4-5.6-2.5
		c-0.1-0.1-0.1-0.2-0.2-0.3c-0.8,0.9-1.4,1.6-2.1,2.4c-0.5,0.5-0.8,1-1,1.6c-0.6,1.6-1.4,3.1-3,3.9c-0.8,0.4-1.5,0.9-2.2,1.4
		c-2.7,1.8-5.5,3.6-8.2,5.5c-0.2,0.2-0.4,0.5-0.5,0.7c-0.2,0.7-0.4,1.4-0.6,2.2c0,0.1-0.1,0.3-0.2,0.4c-0.9,0.6-1.8,1.1-2.6,1.7
		C5,87,5.7,86,5.8,85.1c-1,0-1.3,0.1-2.5,0.9c-0.1,0.1-0.3,0.2-0.5,0.1c-1.1-0.4-1.2-0.7-1.1-1.9c0-0.1,0-0.2,0-0.3
		c-0.2,0-0.3-0.1-0.5-0.1C2,83.9,2,83.2,2,82.6z M79.5,59.6c0.6-0.9,1.1-1.9,0.5-2.9c-1.1-1.9-2.2-3.9-3.5-5.7c-2-2.7-4.2-5.4-6.3-8
		c-0.7-0.9-1.1-1.8-1.4-2.8c-0.1-0.5-0.3-1.1-0.4-1.6c-0.2,0-0.5,0-0.7,0c-0.2,0.9-0.2,0.9-1.7,1.3c0.2,0.8-0.4,1.5,0.3,2.4
		c2.4,3.3,4.5,6.8,6.8,10.2c0.1,0.2,0.2,0.5,0.1,0.8c-0.1,0.8-0.2,1.6-0.2,2.4c0,1.6,0.8,2.4,2.4,2.6c0.7,0.1,1.5,0,2.3,0
		c-1.5,0.6-3.1,1.1-4.7,1.3s-3.2,0.1-4.8-0.6c1.1,1.8,1.8,3.7,1.6,5.9c1.7-0.5,3.2-0.9,4.8-1.3c1.6-0.4,2.8-1.4,3.9-2.6
		c0.1-0.1,0.2-0.4,0.2-0.6c0-0.5-0.1-1-0.1-1.6C79,59.1,79.2,59.3,79.5,59.6z M48.5,68.4c-0.2,0.4-0.4,0.8-0.5,1.2
		c-0.4,1.1-0.3,2.3-0.2,3.4c0,0.3,0,0.7,0.2,1c0.6,1,1.1,2.1,2.4,2.5c0,0,0,0,0.1,0.1c-1,0.7-2,1.3-2.9,2c-1.9,1.5-3.9,2.6-6.3,3
		c-0.1,0-0.3,0.1-0.5,0.2c1.4,0.4,1.9,1.3,1.4,2.5c-0.1,0.2,0,0.3,0,0.6c0.3-0.2,0.5-0.3,0.7-0.4c1.5-0.8,3.1-1.6,4.7-2.1
		c2.2-0.7,4.3-1.5,6.5-2.3c1-0.3,1.5-0.9,1.6-1.9c0-0.1,0.1-0.3,0.2-0.3c0.1,0,0.3,0.1,0.4,0.2c0.2,0.3,0.4,0.6,0.6,0.9
		c0.1-0.5,0.7-0.8,0.4-1.3c-0.3-0.7-0.7-1.3-1.2-1.9c-1.4-1.7-2.9-3.3-4.3-5C50.9,69.7,49.7,69,48.5,68.4z M55.1,68.4
		c-0.6-1.3-1.1-2.6-1.7-3.8c-0.6-1.2-1.4-2.3-2.5-3.2c-1-0.8-2-1.4-3-2.2c-0.6-0.5-1.3-0.6-1.9-0.1c-0.2,0.2-0.5,0.2-0.8,0.4
		c-0.5,0.3-1.1,0.4-1.7,0.4c-0.4,0-0.8,0-1.2,0V60c1.9,0.6,3.1,1.9,4.1,3.6c-0.8-0.6-1.7-0.9-2.8-1c0.5,0.3,0.9,0.6,1.3,0.9
		c0.8,0.5,1.2,1.3,1.3,2.2c0.1,0.6,0.4,1,0.9,1.2c0.2,0.1,0.4,0.1,0.7,0.1c1.9,0,3.4,0.6,4.6,2l0,0c0.1,0,0.3,0.1,0.4,0.1
		C53.5,69,54.2,68.7,55.1,68.4z M7.2,87.7C8.2,86.8,9,86,9,84.6c0-1.2,0.9-2,1.8-2.5c2.4-1.5,4.8-2.8,7.2-4.2
		c0.1-0.1,0.3-0.2,0.3-0.4c0.4-1.1,0-2-1-2.7c-0.3-0.2-0.6-0.3-1-0.5c-0.3-0.1-0.4-0.1-0.6,0.2c-0.3,0.4-0.6,0.8-0.9,1.3
		c-1.3,2.2-3,4-5.3,5.3c-0.5,0.3-0.9,0.5-1.6,0.4c-0.6-0.1-1.2-0.2-1.8-0.2c-0.3,0-0.6,0.1-0.8,0.2c-0.8,0.3-1.6,0.8-2.3,1.1
		c-0.8,0.3-0.8,0.5-0.5,1.3c0.1-0.1,0.3-0.2,0.5-0.3c0,0.5,0,1-0.2,1.6C2.7,85.7,3,85.8,3.2,86c0.3,0.2,0.5-0.1,0.6-0.3
		c0.6-0.8,1.4-1.3,2.3-1.7c0.4-0.2,1.2,0,1.2,0.3c0,0.5,0,1-0.2,1.4c-0.2,0.5-0.5,1-0.8,1.5C6.7,87.4,7,87.5,7.2,87.7z M33.1,84.4
		c0.1,0,0.1,0,0.2,0c0.6-0.4,1.1-0.8,1.7-1.2c0.3-0.2,0.6-0.2,0.8,0c-0.4,0.4-0.9,0.7-1.3,1.1c-0.2,0.2-0.2,0.4-0.3,0.7
		c0.2,0.1,0.4,0.1,0.6,0.2c0.1,0,0.1,0,0.2,0c-0.3,0.8-0.1,1,0.7,1c-0.2,1-0.2,1,0.8,1.1c0,0.2,0,0.6,0.1,0.6c0.2,0.1,0.5,0,0.8,0
		c0.1,0,0.2-0.1,0.3-0.2c0.9-0.6,1.9-1.3,2.8-1.9c0.1-0.1,0.2-0.3,0.4-0.4c-0.2-0.1-0.3-0.2-0.5-0.2c-1-0.2-1.6-1.1-1.3-2.1
		c0-0.1,0.1-0.2,0.1-0.4c-1.2-0.1-2.4-0.1-3.5-0.2c-0.1,0-0.3,0-0.4,0.1c-0.7,0.5-1.4,1-2.1,1.5C33.1,84.1,33.1,84.3,33.1,84.4z
		 M23.6,59.3c1.9-1,3.9-1.1,6-0.9c1.1,0.1,2.2,0.2,3,1.3c0,0,0,0.1,0.1,0.1c0.5,0.1,0.4,0.5,0.5,0.8c0,0.3,0.1,0.5,0.1,0.8
		c0.2-0.6,0.6-1.1-0.1-1.6c-0.2-0.1-0.2-0.4-0.3-0.6c-0.1-0.5-0.1-0.9-0.1-1.4c-1.6,0-3.3,0.5-4.7-0.5c0.1,0,0.3,0,0.4,0.1
		c0.6,0.2,1.4,0,1.7-0.6c0.1-0.2,0.2-0.4,0.1-0.6c-0.2-0.4-0.9-0.5-1.3-0.3c-1.2,0.8-2.5,1.1-3.9,1.4c0.1-0.3,0.3-0.6,0.4-0.9
		c-0.1,0-0.1-0.1-0.2-0.1c-0.1,0.1-0.3,0.2-0.4,0.4c-0.3,0.4-0.5,0.8-0.8,1.1C23.4,58.1,23.5,58.6,23.6,59.3z M32.6,60.5
		c-1.4,0-2.7,0-4.1,0c0.4,1,0.9,1.9,1.6,2.7c0.1,0.1,0.3,0.2,0.4,0.2c0.5,0,1-0.1,1.4-0.2c0.3-0.1,0.7-0.2,0.7-0.6
		C32.6,61.9,32.6,61.2,32.6,60.5z M26.9,60.7c-0.8,0-1.5,0-2.3,0C23.1,60.9,23,61,23,62.6c0,0.6,0.3,0.9,0.9,0.9
		c0.5,0,1,0.1,1.5,0.1c0.2,0,0.4-0.1,0.5-0.2C26.5,62.6,26.7,61.7,26.9,60.7z M80.8,47.1c0.2-1.3,0.4-2.3,0.5-3.5
		c-0.8,0-1.5,0.2-2.2,0.6c-0.9,0.6-1,1.8,0,2.4C79.7,46.8,80.3,46.9,80.8,47.1z M64.6,41.7c0.1-1.1,0.2-2.1,0.3-3.1
		c-1.5-0.3-2,0.3-2.2,1.3S63.3,41.7,64.6,41.7z M41.7,83.3c0-0.6-0.5-1.2-1.2-1.2c-0.6,0-1.1,0.5-1.2,1.1c0,0.6,0.5,1.2,1.1,1.2
		C41.1,84.5,41.7,84,41.7,83.3z M28.5,64.7c0-1-0.1-1.9-0.1-2.8c0-0.2-0.2-0.4-0.4-0.5c-0.3-0.1-0.5,0.2-0.5,0.5c0,0.9,0,1.9,0,2.8
		C27.9,64.7,28.2,64.7,28.5,64.7z"/>
	<path class="st0" d="M36.4,48c0.5,0.1,0.9,0.2,1.3,0.3c-0.2,0.6-0.3,1.1-0.5,1.7c-0.5-0.1-0.9-0.1-1.3-0.2
		C36.1,49.1,36.2,48.6,36.4,48z"/>
</g>
</svg>
