<?xml version="1.0" encoding="utf-8"?>
<!-- Generator: Adobe Illustrator 24.1.1, SVG Export Plug-In . SVG Version: 6.00 Build 0)  -->
<svg version="1.1" id="Layer_1" xmlns="http://www.w3.org/2000/svg" xmlns:xlink="http://www.w3.org/1999/xlink" x="0px" y="0px"
	 viewBox="0 0 100 100" style="enable-background:new 0 0 100 100;" xml:space="preserve">
<style type="text/css">
	.st0{fill:#60CCE4;}
	.st1{fill:#5194D1;}
	.st2{font-family:'AgencyFB-Bold';}
	.st3{font-size:10.8007px;}
	.st4{font-size:23.9128px;}
</style>
<g>
	<path class="st0" d="M69.6,58.4c-3.1,2.9-5.9,5.6-8.9,8.1c-1.1,1-1.1,1.9-0.9,3.1c0.8,4.1,1.5,8.1,2.3,12.2c-0.7,0.3-1-0.1-1.4-0.3
		c-3.2-1.6-6.3-3.1-9.4-4.8c-1-0.5-1.8-0.5-2.8,0c-3,1.6-6.1,3.1-9.1,4.6c-0.5,0.2-0.9,0.6-1.7,0.6c0.7-4,1.4-7.9,2.2-11.8
		c0.3-1.6,0.2-2.8-1.2-3.9c-2.5-2-4.8-4.2-7.1-6.4c-0.4-0.4-0.9-0.6-1.1-1.3c3.6-0.5,7.2-0.4,10.7-0.4c2.1,0,3.1-0.7,3.8-2.7
		c1.4-4.3,3.2-8.4,5-13c1.8,4.8,3.6,9.2,5.2,13.6c0.5,1.5,1.3,2,2.8,2C61.6,58,65.4,57.9,69.6,58.4z"/>
	<path class="st0" d="M42.1,52.9c-2,2.2-3.5,3.8-6.4,3.5c-1.8-0.2-3.7,0.1-5.5,0.2c-0.7,0-1.5,0.2-1.7,1.1c-0.3,0.9-0.1,1.6,0.6,2.3
		c1.4,1.3,2.7,2.8,4.2,3.8c2.4,1.7,2.8,4.1,3.1,7c-2.5-1.3-4.8-2.3-7-3.6c-1.4-0.8-2.5-0.9-4,0c-2.2,1.3-4.5,2.3-7.1,3.7
		c0.6-3.1,1-5.8,1.6-8.5c0.3-1.5,0.1-2.6-1.2-3.6c-2-1.6-3.8-3.4-5.6-5.6c1.9,0,3.7,0,5.6,0c4.3-0.1,4.3-0.1,5.8-4.1
		c0.9-2.2,1.8-4.5,2.6-6.7c0-0.1,0.2-0.1,0.4-0.3c1,2.5,1.9,4.9,2.8,7.3c1.4,3.7,1.4,3.8,5.5,3.8C37.9,53,39.8,52.9,42.1,52.9z"/>
	<path class="st0" d="M72,41.8c1.2,3,2.4,6,3.5,9c0.5,1.5,1.2,2,2.7,2c2.6-0.1,5.2,0,7.8,0c0.1,0.2,0.1,0.4,0.2,0.5
		c-1.4,1.3-2.6,2.7-4.1,3.7c-2.7,1.8-3.5,4-2.4,7.1c0.7,2,0.8,4.1,1.2,6.5c-2.7-1.4-5.2-2.5-7.5-3.8c-1.1-0.6-2-0.6-3.1,0
		c-2.4,1.3-4.8,2.5-7.4,3.8c0.2-2.6,0.5-4.7,2.6-6.2c1.8-1.3,3.2-2.9,4.9-4.4c0.8-0.7,1-1.5,0.8-2.4c-0.3-0.9-1.1-1-1.9-1.1
		c-1.8-0.1-3.7-0.4-5.5-0.2c-2.8,0.3-4.6-1.2-6.6-3.5c2.3,0,4.1,0,6,0c4.2-0.1,4.2-0.1,5.7-4c0.9-2.3,1.8-4.6,2.7-6.8
		C71.6,42,71.7,42,72,41.8z"/>
	<path class="st0" d="M93.3,61.4c-2-0.7-3.8-1.8-5.7-2.8c-0.7-0.4-1.3-0.4-2,0c-1.6,0.9-3.2,1.7-5,2.6c-0.1-1,0.6-1.3,1-1.7
		c1.7-1.6,3.4-3.1,5.1-4.6c0.6-0.6,1.3-1.2,0.9-2.2c-0.4-1-1.3-1-2.1-1c-1.4,0-2.8-0.2-4.2-0.1c-2.1,0.2-3.5-1-4.7-2.4
		c-0.3-0.3-0.6-0.6-0.3-1c0.2-0.4,0.6-0.2,0.9-0.2c1.6,0,3.1-0.1,4.7-0.1c1,0,1.5-0.3,1.8-1.3c0.8-2.4,1.8-4.7,2.9-7.6
		c1.1,2.8,2.1,5.1,2.9,7.4c0.4,1.1,0.9,1.5,2.1,1.4c2-0.1,4,0,6,0c0,0.2,0.1,0.3,0.1,0.5c-1.3,1.2-2.6,2.5-4,3.7
		c-1.2,0.9-1.4,1.9-1.2,3.3C92.8,57.3,93.5,59.3,93.3,61.4L93.3,61.4z"/>
	<path class="st0" d="M6.3,61.4c-0.2-2.1,0.5-4.1,0.9-6.1c0.3-1.4,0-2.4-1.2-3.3c-1.4-1.1-2.7-2.4-4-3.7C2,48.2,2,48,2.1,47.9
		c1.9,0,3.9-0.1,5.8,0c1.2,0.1,1.9-0.3,2.3-1.6c0.8-2.3,1.7-4.5,2.8-7.3c1.1,2.8,2.1,5.1,2.9,7.4c0.4,1.1,0.9,1.5,2,1.5
		c1.4-0.1,2.9,0.1,4.4,0.1c1,0,1.1,0.5,0.7,1.1c-0.8,1.1-1.6,2.3-3.2,2.4c-2,0-3.9,0.1-5.9,0.2c-0.8,0-1.8,0.1-2.1,1
		c-0.4,1,0.3,1.7,1,2.3c2,1.8,4,3.7,5.9,5.7c-1.7-0.3-3-1.2-4.5-1.9c-0.8-0.4-1.5-0.4-2.3,0C10,59.6,8.2,60.7,6.3,61.4L6.3,61.4z"/>
</g>
<path class="st1" d="M387.9-18c0.2,0.1,0.4,0.2,0.5,0.2c-0.1,0-0.2,0.1-0.3,0C388.1-17.8,388-17.9,387.9-18
	C387.9-18,387.9-18,387.9-18z"/>
<g>
	<text transform="matrix(1 0 0 1 43.5498 26.7168)"><tspan x="0" y="0" class="st0 st2 st3">Star  </tspan><tspan x="0" y="10.1" class="st0 st2 st3">Rating</tspan></text>
	<text transform="matrix(1 0 0 1 31.501 37.0908)" class="st0 st2 st4">5</text>
</g>
</svg>
