<?xml version="1.0" encoding="utf-8"?>
<!-- Generator: Adobe Illustrator 24.1.1, SVG Export Plug-In . SVG Version: 6.00 Build 0)  -->
<svg version="1.1" id="Layer_1" xmlns="http://www.w3.org/2000/svg" xmlns:xlink="http://www.w3.org/1999/xlink" x="0px" y="0px"
	 viewBox="0 0 100 100" style="enable-background:new 0 0 100 100;" xml:space="preserve">
<style type="text/css">
	.st0{fill:#F867AC;}
	.st1{fill:#F86CAF;}
	.st2{fill:#F86BAE;}
	.st3{fill:#F75EA7;}
	.st4{fill:#F86FB0;}
	.st5{fill:#F764AA;}
	.st6{fill:#F87BB7;}
	.st7{fill:#F875B4;}
	.st8{fill:#FEFCFD;}
</style>
<path class="st0" d="M92.4,79.1c-2.8,1.3-5.7,0.3-8.5,0.6c-1.1,0.1-2.3,0.1-3.5,0.1c-0.3,0-0.6,0-0.5,0.5c2.6,4.6,1.5,7.5-3.5,9.6
	C74.2,90.7,72,91,69.7,91c-0.8,0-1.6-0.1-1.6-1.3c0-0.9,0.7-1.1,1.4-1.2c2.4-0.3,4.9-0.6,7.1-1.7c1.1-0.6,2.4-1.2,2.3-2.8
	c-0.1-1.4-1.2-2-2.3-2.5c-3-1.5-6.2-1.8-9.5-1.8c-17.3,0-34.7,0-52,0c-0.7,0-1.4,0-2.1,0c-0.9,0-1.9,0.1-1.9-1.3c0-1.2,1-1,1.7-1.1
	c0.6,0,1.2,0,1.8,0c9.4,0,18.7,0,28.1,0c1,0,2.1,0.2,3-0.8c3.8-4.6,9.1-6.4,14.7-7.2c2-0.3,3.7-0.7,5.4-1.9c1.1-0.8,2.4-1.3,3.8-1.7
	c4.2-1.3,4.2-1.2,3.6-5.5c-0.2-1.7-0.7-3.3-1-4.9c-0.5-2.3-0.9-4.6-4.2-3.3c-0.1,0-0.2,0-0.3,0c-4.3-3.1-5.8,1.1-8.2,3.1
	c-1.1,1-1.8,3.5-3.9,2.2c-1.9-1.1-1.9-3.3-1.3-5.3c0.1-0.5,0.2-1,0.4-1.4c1.4-3.9,1.4-3.9-3-3.9c-1.1,0-2.2,0-3.3,0
	c-2.9-0.1-3.6-1.2-2-3.6c2.5-3.7,6.5-4,10.4-4.6c0.1,0,0.2,0,0.3,0c1.8-0.5,4.1,1.4,5.2-0.1c0.9-1.3,0.2-3.6,0.3-5.5
	c0.1-3.3,0.9-6.4,3-9.1c1-1.3,2.3-2.1,3.8-1.7c1.4,0.4,1,2,1,3.1c0,2.6,0,5.3,0,8.5c1.7-1.3,2.9-2.4,4.3-3.4
	c2.5-1.7,5.1-3.1,8.2-2.5c1,0.2,2,0.6,2.4,1.5c0.6,1.2-0.5,1.8-1.2,2.4c-2.3,2.1-4.6,4.2-6.7,6.7c6,0.4,11.9,0,15.3,5.9
	c0,0.6,0,1.2,0,1.8c-1,0.6-2,0.6-3.1,0.6c-3.2,0-6.3,0.1-9.5,0c-2.1-0.1-2.6,0.5-1.8,2.5c1.9,4.8,2.7,9.9,3,15
	c0.1,1.5,0.5,2.3,1.9,3.2C87.8,70,91.2,73.8,92.4,79.1z M89.2,77.4c-2.4-5.8-8.3-9.9-14.2-10c-6.3-0.1-10.7,3.2-14.1,8.2
	c-0.7,1.1-0.8,1.8,0.9,1.8C70.8,77.4,79.8,77.4,89.2,77.4z M81.9,30.3c-5.4-0.5-13.1,6.9-12.3,11.6C74.4,38.7,77.9,34.5,81.9,30.3z
	 M79.1,63.3c-0.5-3.6-0.9-7.2-2.1-10.7c-0.3-0.8-0.5-1.7-1.5-1.2c-0.6,0.3-1.8,0.4-1.5,1.5c1,3.6,1.6,7.3,2,11
	c0.1,1.2,1.2,1.2,2.1,1.2C79.3,65,79.1,64.1,79.1,63.3z M49,44c6.2,0,11.8,0,17.7,0C62.9,40.2,53.8,40.2,49,44z M89.1,44
	c-4.8-3.9-14.7-3.7-17.3,0C77.4,44,82.9,44,89.1,44z M67.9,32.6c0-1.9,0-3.5,0-5c0-0.5,0.2-1.3-0.5-1.5c-0.7-0.2-1,0.5-1.2,1
	c-1.6,3.8-1.7,7.8-0.7,11.8c0.1,0.6,0.3,1.2,1.1,1.1c0.7-0.1,0.8-0.8,1-1.3C68.3,36.6,67.7,34.4,67.9,32.6z M48.2,77.4
	c3.1,0,5.6,0.2,8-0.1c2.5-0.3,2.7-3,3.9-4.7c0.4-0.6-0.6-0.8-1.2-0.7C55.2,72.8,51.5,73.9,48.2,77.4z M57,53.1
	c2.1-2,4.3-4.1,6.6-6.2C59.4,46.2,57.3,48.3,57,53.1z M75,48.1c-0.1-1.1-0.8-1.5-1.8-1.5c-0.8,0-1.6,0.3-1.6,1.3
	c0,1,0.5,1.6,1.6,1.6C74.2,49.6,74.8,49.1,75,48.1z M67.8,46.7c-0.9,0-1.6,0.5-1.5,1.4c0,0.7,0.4,1.3,1.2,1.4
	c0.9,0.1,1.5-0.3,1.7-1.3C69.3,47.3,68.7,46.9,67.8,46.7z"/>
<path class="st1" d="M9.4,83.2c4-1.1,8.2-0.3,12.2-0.5c1,0,1.4,0.6,1.3,1.5c0,0.8-0.5,1.3-1.3,1.3c-4.1-0.2-8.2,0.6-12.2-0.5
	C9.4,84.4,9.4,83.8,9.4,83.2z"/>
<path class="st2" d="M31.2,16.4c4.2,0,7.3,2.8,7.3,6.8c0,3.7-3.1,6.8-6.7,6.7c-3.6,0-6.8-3.1-6.9-6.7C24.9,19.6,27.7,16.5,31.2,16.4
	z M31.8,27.5c2.4-0.1,4.2-2,4.2-4.4c0-2.4-2-4.3-4.4-4.3c-2.5,0-4.6,2.2-4.4,4.6C27.3,25.7,29.5,27.6,31.8,27.5z"/>
<path class="st3" d="M27.8,88.6c2.8,0,5.7,0,8.5,0c0.8,0,1.9-0.1,1.9,1.2c0,1.3-1.1,1.2-2,1.2c-5.9,0-11.8,0-17.6,0
	c-0.8,0-1.7-0.1-1.8-1.1c-0.1-1.2,0.9-1.3,1.8-1.3C21.7,88.6,24.8,88.6,27.8,88.6z"/>
<path class="st4" d="M13.9,63.1c-1.3-0.1-1.4-0.8-1.3-1.7c0.3-2.1,2.7-4,4.7-3.2c1.4,0.6,2.5,0.4,3.9-0.1c1.9-0.6,4.4,1,4.7,3
	c0.1,0.8,0.3,1.6-0.8,1.9c-0.8,0.2-1.2-0.2-1.6-0.9c-1-2.1-2.1-2.2-3.1,0c-0.5,0.9-1.4,1.6-2,0.4c-1.4-2.8-2.5-2.9-3.9-0.1
	C14.5,62.8,14,62.9,13.9,63.1z"/>
<path class="st4" d="M27.7,52.3c-0.9,0-1.5,0.5-1.7,1.3c-0.2,0.9-0.8,1.4-1.7,1c-1-0.4-0.8-1.3-0.6-2c0.7-2.2,2.4-3.2,4.5-2.8
	c1.5,0.3,2.6,0.6,4.2,0c1.9-0.7,4.3,1.1,4.6,3.1c0.1,0.8,0,1.4-0.7,1.7c-0.8,0.3-1.2-0.2-1.5-0.9c-0.8-1.9-2.2-2.2-3.2-0.4
	c-1.1,2-1.7,1.9-2.6,0C28.8,52.7,28.4,52.4,27.7,52.3z"/>
<path class="st1" d="M37.2,82.7c2.1,0,4.1,0,6.2,0c1,0,1.8,0.3,1.8,1.4c0,1.1-0.8,1.4-1.8,1.4c-4.1,0-8.3,0-12.4,0
	c-1,0-1.9-0.4-1.9-1.4c0-1.1,0.9-1.4,1.9-1.4C33.1,82.7,35.2,82.7,37.2,82.7z"/>
<path class="st1" d="M58.3,82.7c1.6,0,3.1,0,4.7,0c1,0,1.8,0.4,1.8,1.5c0,0.9-0.7,1.4-1.6,1.4c-3.3,0-6.7,0-10,0
	c-0.9,0-1.6-0.4-1.7-1.3c0-1.1,0.8-1.5,1.8-1.5C54.9,82.7,56.6,82.7,58.3,82.7z"/>
<path class="st5" d="M48.5,91.1c-1.3-0.6-3.8,1-3.8-1.4c0-1.9,2.4-1,3.7-1c1.3,0,3.6-0.9,3.6,1.1C52.2,91.8,49.8,90.5,48.5,91.1z"/>
<path class="st4" d="M19.2,24.6c-1.1,0-2.5,0-2.5-1.4c0-1.6,1.5-1.5,2.7-1.5c1.1,0,2.4,0.1,2.3,1.5C21.6,24.8,20.3,24.6,19.2,24.6z"
	/>
<path class="st4" d="M44.4,24.6c-1.3,0-2.7,0.1-2.8-1.3c-0.1-1.7,1.4-1.5,2.6-1.6c1.1,0,2.4,0,2.4,1.5
	C46.6,24.6,45.3,24.7,44.4,24.6z"/>
<path class="st6" d="M39.8,16.4c-0.9,0-1.5-0.4-1.3-1.1c0.5-1.4,1.1-2.7,2.8-3c0.8-0.1,1.4,0.4,1.2,1.2C42.1,15.1,41.1,16,39.8,16.4
	z"/>
<path class="st7" d="M22.1,34.1c-0.8,0-1.5-0.3-1.3-1c0.5-1.5,1.6-2.6,3.1-3.1c0.6-0.2,1.3,0.4,1.1,1C24.6,32.6,23.5,33.6,22.1,34.1
	z"/>
<path class="st7" d="M30.6,10.6c0.2-0.9-0.4-2.3,1-2.4c1.6-0.1,1.3,1.4,1.4,2.4c0,1.1,0.1,2.5-1.3,2.5
	C30.2,13.2,30.9,11.6,30.6,10.6z"/>
<path class="st4" d="M22.3,12.3c1.2,0.5,2.3,1.5,2.7,3c0.2,0.6-0.5,1.2-1.1,1.1c-1.5-0.4-2.5-1.5-3-2.8
	C20.6,12.8,21.4,12.3,22.3,12.3z"/>
<path class="st7" d="M33,35.6c-0.1,1,0.2,2.5-1.3,2.5c-1.5,0-1-1.4-1-2.2c0-1-0.6-2.5,0.9-2.7C33.1,33,33,34.5,33,35.6z"/>
<path class="st6" d="M42.5,32.9c0,0.7-0.2,1.3-0.9,1.2c-1.5-0.4-2.5-1.5-3-2.9c-0.3-0.7,0.3-1.1,1-1.1
	C40.6,29.9,42.5,31.8,42.5,32.9z"/>
<path class="st8" d="M79.8,80.3c-0.1-0.4,0.2-0.5,0.5-0.5C80.2,80,80,80.1,79.8,80.3z"/>
</svg>
